<svg viewBox="0 0 740 195" fill="none" xmlns="http://www.w3.org/2000/svg">
<path d="M156 117H195V156H156V117Z" fill="#C61AFF"/>
<path d="M156 156H195V195H156V156Z" fill="#AC00E6"/>
<path d="M78 117H117V156H78V117Z" fill="#C61AFF"/>
<path d="M78 156H117V195H78V156Z" fill="#AC00E6"/>
<path d="M78 39H117V78H78V39Z" fill="#AC00E6"/>
<path d="M156 78H195V117H156V78Z" fill="#AC00E6"/>
<path d="M78 78H117V117H78V78Z" fill="#AC00E6"/>
<path d="M39 117H78V156H39V117Z" fill="#8600B3"/>
<path d="M0 78H39V117H0V78Z" fill="#AC00E6"/>
<path d="M0 117H39V156H0V117Z" fill="#C61AFF"/>
<path d="M0 156H39V195H0V156Z" fill="#AC00E6"/>
<path d="M0 39H39V78H0V39Z" fill="#AC00E6"/>
<path d="M0 0H39V39H0V0Z" fill="#AC00E6"/>
<path d="M78 0H117V39H78V0Z" fill="#AC00E6"/>
<path d="M156 39H195V78H156V39Z" fill="#AC00E6"/>
<path d="M195 0H234V39H195V0Z" fill="#8600B3"/>
<path d="M233 39H272V78H233V39Z" fill="#AC00E6"/>
<path d="M233 78H272V117H233V78Z" fill="#AC00E6"/>
<path d="M233 117H272V156H233V117Z" fill="#C61AFF"/>
<path d="M233 156H272V195H233V156Z" fill="#AC00E6"/>
<path d="M311 156H350V195H311V156Z" fill="#AC00E6"/>
<path d="M622 156H661V195H622V156Z" fill="#AC00E6"/>
<path d="M467 117H506V156H467V117Z" fill="#AC00E6"/>
<path d="M467 156H506V195H467V156Z" fill="#C61AFF"/>
<path d="M507 156H546V195H507V156Z" fill="#C61AFF"/>
<path d="M311 117H350V156H311V117Z" fill="#C61AFF"/>
<path d="M661 156H700V195H661V156Z" fill="#AC00E6"/>
<path d="M467 78H506V117H467V78Z" fill="#C61AFF"/>
<path d="M311 39H350V78H311V39Z" fill="#AC00E6"/>
<path d="M311 78H350V117H311V78Z" fill="#AC00E6"/>
<path d="M623 39H662V78H623V39Z" fill="#AC00E6"/>
<path d="M623 78H662V117H623V78Z" fill="#C61AFF"/>
<path d="M623 0H662V39H623V0Z" fill="#C61AFF"/>
<path d="M700 78H739V117H700V78Z" fill="#C61AFF"/>
<path d="M467 39H506V78H467V39Z" fill="#AC00E6"/>
<path d="M311 0H350V39H311V0Z" fill="#C61AFF"/>
<path d="M467 0H506V39H467V0Z" fill="#C61AFF"/>
<path d="M350 0H389V39H350V0Z" fill="#AC00E6"/>
<path d="M662 0H701V39H662V0Z" fill="#AC00E6"/>
<path d="M506 0H545V39H506V0Z" fill="#AC00E6"/>
<path d="M389 39H428V78H389V39Z" fill="#AC00E6"/>
<path d="M389 78H428V117H389V78Z" fill="#AC00E6"/>
<path d="M701 0H740V39H701V0Z" fill="#AC00E6"/>
<path d="M545 39H584V78H545V39Z" fill="#8600B3"/>
<path d="M545 117H584V156H545V117Z" fill="#8600B3"/>
<path d="M349 117H388V156H349V117Z" fill="#8600B3"/>
<path d="M661 78H700V117H661V78Z" fill="#AC00E6"/>
<path d="M506 78H545V117H506V78Z" fill="#AC00E6"/>
<path d="M506 156H545V195H506V156Z" fill="#AC00E6"/>
<path d="M389 156H428V195H389V156Z" fill="#8600B3"/>
<path d="M700 117H739V156H700V117Z" fill="#AC00E6"/>
<path d="M700 156H739V195H700V156Z" fill="#C61AFF"/>
<path d="M195 117H233V156H195V117Z" fill="#8600B3"/>
</svg>
